<?xml version="1.0" encoding="UTF-8"?>
<svg version="1.1" viewBox="0 0 2048 656" width="343" height="110" xmlns="http://www.w3.org/2000/svg">
<path transform="translate(373,25)" d="m0 0h211l22 5 16 6 15 8 14 11 8 7 7 8 10 14 9 19 6 21 1 12v28l-2 16-6 19-6 13-7 11-8 10-10 10-18 12-14 7-12 5v3l11 17 34 56 7 10v2l41 1 1 1v78l-1 1h-113l-5-8-14-26-14-27-13-25-12-22-15-28-7-12v67l20 1 1 54v25l-1 1h-155l-1-1v-79h36l1-251h-34l-3-3zm135 80 1 93h46l10-3 11-8 6-8 3-6 2-12v-21l-3-12-6-10-8-8-9-4-5-1z" fill="#0775BA"/>
<path transform="translate(329,24)" d="m0 0 5 1v134l-2 1h-87v-55h-73v82h107l1 1v36l-1 43h-107v89h73v-57h91l1 1v135l-1 1h-299l-1-2 1-77 1-1h34v-252l-2 1h-31l-2-2v-78z" fill="#0775BA"/>
<path transform="translate(1154,23)" d="m0 0h147l85 1v124l-27 1h-51l-1-1v-51h-107l-1 80h105v77h-105v109h104l1-60 29-1h47l6 1 1 132-1 1-314 1-3-1-1-5v-45l1-22 5-1h35v-266h-39l-2-3v-59l1-11z" fill="#F49124"/>
<path transform="translate(729,24)" d="m0 0 210 1 14 3 16 5 16 7 12 8 9 7 9 8 9 11 9 14 7 16 5 19 2 12 1 13v14l-4 25-5 16-8 16-7 11-9 10-5 5-10 9-15 9-15 7-15 5-13 3-10 1-22 1h-46v76h47v79l-1 1-146 1h-31l-4-1v-80h35v-252l-6 1h-28l-1-1zm141 81-6 1v91h45l11-4 10-7 7-9 5-12 2-9v-11l-4-13-6-11-8-8-11-6-14-2z" fill="#0775BA"/>
<path transform="translate(1541,157)" d="m0 0h20l19 3 16 5 15 8 10 5-1-14h118l1 1v49l-1 21h-35v130h35l1 1v69l-1 1h-117l-1-3 1-10-5 1-17 9-18 6-17 3-10 1h-10l-21-2-17-4-18-7-15-8-13-10-12-11-11-14-10-16-6-14-6-19-3-16-1-11v-23l3-21 6-21 9-19 9-14 9-11 16-16 14-10 19-10 20-6 10-2zm10 75-14 3-14 7-10 9-8 9-7 15-4 18v16l4 17 7 14 9 10 9 8 12 6 18 4h11l15-3 16-8 9-7 7-8 8-14 4-16 1-16-3-17-5-12-7-11-11-11-14-8-13-4-6-1z" fill="#F59125"/>
<path transform="translate(1764,164)" d="m0 0h236v64l-3 5-7 7-7 8-44 44-7 8-56 56-7 9h63l1-37h73v107l-1 1h-248l-1-2v-23l1-41 10-11 8-7 22-22 7-8 18-18 7-8 59-59 1-2h-51v32l-2 1h-71l-1-1z" fill="#F59125"/>
<path transform="translate(1209,556)" d="m0 0h10l8 4 8 9 5-6 9-6 4-1h10l9 3 7 7 4 11v43h-6l-1-38-2-9-5-7-7-3h-10l-6 3-5 6-2 4-1 7-1 25-1 12h-5l-1-1v-42l-4-7-7-6-2-1h-9l-10 5-4 6-1 3-1 43h-8l-1-14v-46l1-2 4 1 4 4 13-6z" fill="#050D11"/>
<path transform="translate(206,556)" d="m0 0h10l8 4 7 9 5-5 8-6 6-2h10l8 3 7 6 4 8 1 5v41l-1 1h-5l-1-37-2-10-4-6-8-4h-10l-6 3-5 6-2 4-1 6-2 38h-5l-1-1v-41l-3-7-8-7-2-1h-10l-8 4-4 5-2 4-1 44h-8l-1-11v-26l1-25 4 1 4 4 10-5z" fill="#040C10"/>
<path transform="translate(347,557)" d="m0 0h14l10 4 8 7 5 10 1 4v11l-2 9-6 9-9 8-12 3-12-1-8-4-6-6-1 37-1 1h-5l-2-7v-83l5-1 2 1 1 9 8-7 6-3zm1 6-8 3-6 5-4 8-1 3v17l3 6 8 8 5 2h17l9-6 6-12v-16l-5-10-8-6-5-2z" fill="#050B0E"/>
<path transform="translate(1674,539)" d="m0 0h13l13 4 9 7 7 11 1 6-5-3-12-12-9-5-4-1h-14l-10 4-6 5-5 9-3 12v11l3 10 5 8 7 6 5 2 6 1h12l8-2 8-6 5-6 4-10v-5l-5-1h-28l-3-2 1-4 41-1 3 3-2 12-7 14-6 7-10 6-9 2h-17l-10-4-10-9-7-12-2-7v-18l5-12 7-9 9-7 7-3z" fill="#060E12"/>
<path transform="translate(1960,556)" d="m0 0 4 4 9 25 6 22v2h2l3-9 10-32 3-9 2-2h5l-4 16-12 37-5 10-3 1-3-3-12-34-4-13-1-1-6 14-11 29-5 8h-3l-7-18-12-40v-5h4l3 5 7 21 6 26 4-8 12-32 5-11z" fill="#040D11"/>
<path transform="translate(1108,557)" d="m0 0h16l10 4 6 5 6 12 1 11-1 4v8l-4 8-6 7-6 4-7 2h-13l-10-4-8-8-6-11-1-4v-11l4-10 6-9 8-6zm5 5-9 3-5 4-5 9-2 7 1 1h47l1-2-3-9-6-8-8-4zm23 30-42 1-1 1 1 8 6 8 8 5 4 1h11l7-3 5-4 8-14v-3z" fill="#060D11"/>
<path transform="translate(1468,557)" d="m0 0h16l10 4 5 5 4 5 3 9v18l-4 10-8 9-8 4-4 1h-14l-8-4-6-5-7-11-2-6v-14l4-10 9-10zm5 5-9 3-6 5-4 7-2 9h47v-8l-5-8-6-5-9-3zm23 30-44 1 1 7 6 10 8 5 5 1h11l8-4 7-8 6-12z" fill="#050C0F"/>
<path transform="translate(790,538)" d="m0 0 11 1 10 5 5 6 2 9-4-1-7-7-9-5-10-1-7 3-3 1-2 5-1 2v8l3 5 8 5 21 7 6 4 5 6 1 2v11l-4 8-8 7-12 3h-7l-10-3-7-6-5-10 1-4h4l7 11 4 3 7 2h9l8-3 4-5 1-2v-9l-4-6-10-5-15-4-11-8-4-7v-10l5-8 8-7z" fill="#050D11"/>
<path transform="translate(59,539)" d="m0 0h16l12 6 5 8v7l-4-2-9-9-6-3-9-1-9 3-4 5-2 5 1 8 4 5 12 5 13 4 8 5 5 6 2 4-1 10-4 7-8 7-9 3h-9l-10-3-9-8-2-5v-8h3l6 10 6 5 8 2h8l8-4 3-4 1-3v-8l-3-5-5-4-20-6-9-6-5-6-1-2v-11l6-10 5-4z" fill="#040B0E"/>
<path transform="translate(1845,557)" d="m0 0h13l11 4 8 7 5 10 2 8-1 11-4 9-7 8-6 5-10 3h-11l-9-3-9-8-6-10-2-9 1-10 4-9 6-8 6-5zm1 6-8 3-5 5-4 6-2 9v10l4 10 4 5 8 4h17l7-4 5-6 3-7v-19l-3-6-8-7-8-3z" fill="#050E12"/>
<path transform="translate(958,556)" d="m0 0h8l10 4 7 7 2 5v5l-4-2-8-8-8-4h-8l-7 4-2 4v6l4 5 11 4 12 4 9 6 2 9-3 8-8 7-6 2h-12l-8-3-6-5-4-8v-4l4 1 8 9 8 3h11l6-4 2-5-1-7-8-4-18-6-6-4-4-5-1-2v-7l4-6 8-7z" fill="#050D10"/>
<path transform="translate(905,556)" d="m0 0h2l-1 7-12 31-11 27-11 26-3 3-3-1 1-8 5-12 4-11-2-1v-3l-5-10-13-32-5-11v-3l6 1 4 6 14 35 4 12 10-25 9-22 5-8z" fill="#040E13"/>
<path transform="translate(580,557)" d="m0 0 4 1 5 10 12 30 3 13 1 1 8-17 13-33 3-5h4l-1 7-9 24-12 30-10 24-3 6-5 1 1-8 7-18 1-5-7-15-11-29-5-12z" fill="#050D11"/>
<path transform="translate(1372,558)" d="m0 0h37l1 4-7 12-16 25-9 14 8 1 25 1 1 4-6 2h-32l-6-2 4-8 13-21 11-18 4-8-10 1h-20l-2-5z" fill="#051017"/>
<path transform="translate(1027,542)" d="m0 0 5 1 1 15 15-1 3 4v3l-18 1v45l3 3 3 1 12 1 1 4-1 1h-15l-8-4-2-5v-47l-4 1-6-1 1-5h9v-16z" fill="#040B0E"/>
<path transform="translate(542,534)" d="m0 0 5 1-1 5-14 3-1 16h15l1 5h-16v55l-1 1h-5l-1-8v-47l-9-1-1-3 2-2 7-1 3-15 6-6z" fill="#08141B"/>
<path transform="translate(1784,556)" d="m0 0h6l-1 4-3 3-15 6-3 3-1 47-1 1-7-1-1-1v-59l4-1 6 3 7-1z" fill="#05121A"/>
<path transform="translate(423,536)" d="m0 0h7v84h-7z" fill="#030607"/>
<path transform="translate(1326,558)" d="m0 0h6v62h-7l-1-5v-55z" fill="#040F15"/>
<path transform="translate(472,558)" d="m0 0h8v61h-8z" fill="#030608"/>
<path transform="translate(132,558)" d="m0 0h7l1 1-1 60-1 1h-6z" fill="#040A0D"/>
<path transform="translate(669,611)" d="m0 0h4l2 4-1 4-1 1-7-1-2-3z" fill="#060F14"/>
<path transform="translate(1325,536)" d="m0 0 7 1 1 6-1 1h-7l-2-2 1-5z" fill="#060E12"/>
<path transform="translate(1542,611)" d="m0 0 4 1 3 3-1 4-6 1-2-2v-5z" fill="#0B1114"/>
<path transform="translate(472,537)" d="m0 0h7l2 2-1 5h-6l-3-3z" fill="#030B0F"/>
<path transform="translate(132,537)" d="m0 0h6l3 2v4l-2 1h-6l-2-2z" fill="#03090C"/>
</svg>